<mxfile host="app.diagrams.net" agent="Mozilla/5.0 (Windows NT 10.0; Win64; x64) AppleWebKit/537.36 (KHTML, like Gecko) Chrome/130.0.0.0 Safari/537.36" version="24.8.6">
  <diagram name="Страница — 1" id="UvC6Aw6rnlGmGbRL6Bz3">
    <mxGraphModel dx="712" dy="779" grid="1" gridSize="10" guides="1" tooltips="1" connect="1" arrows="1" fold="1" page="1" pageScale="1" pageWidth="827" pageHeight="1169" math="0" shadow="0">
      <root>
        <mxCell id="0" />
        <mxCell id="1" parent="0" />
        <mxCell id="GTbLbp3BnAc4MaiepVZ9-7" style="edgeStyle=orthogonalEdgeStyle;rounded=0;orthogonalLoop=1;jettySize=auto;html=1;exitX=0.5;exitY=1;exitDx=0;exitDy=0;entryX=0.5;entryY=0;entryDx=0;entryDy=0;" parent="1" source="GTbLbp3BnAc4MaiepVZ9-1" target="GTbLbp3BnAc4MaiepVZ9-2" edge="1">
          <mxGeometry relative="1" as="geometry" />
        </mxCell>
        <mxCell id="GTbLbp3BnAc4MaiepVZ9-1" value="начало" style="ellipse;whiteSpace=wrap;html=1;" parent="1" vertex="1">
          <mxGeometry x="350" y="360" width="120" height="80" as="geometry" />
        </mxCell>
        <mxCell id="GTbLbp3BnAc4MaiepVZ9-8" style="edgeStyle=orthogonalEdgeStyle;rounded=0;orthogonalLoop=1;jettySize=auto;html=1;exitX=0.5;exitY=1;exitDx=0;exitDy=0;" parent="1" source="GTbLbp3BnAc4MaiepVZ9-2" edge="1">
          <mxGeometry relative="1" as="geometry">
            <mxPoint x="410" y="550" as="targetPoint" />
          </mxGeometry>
        </mxCell>
        <mxCell id="GTbLbp3BnAc4MaiepVZ9-2" value="cout &amp;lt;&amp;lt; &quot;Введите длину последовательности: \n&quot;;" style="shape=parallelogram;perimeter=parallelogramPerimeter;whiteSpace=wrap;html=1;fixedSize=1;" parent="1" vertex="1">
          <mxGeometry x="350" y="460" width="120" height="60" as="geometry" />
        </mxCell>
        <mxCell id="GTbLbp3BnAc4MaiepVZ9-6" value="конец" style="ellipse;whiteSpace=wrap;html=1;" parent="1" vertex="1">
          <mxGeometry x="354" y="1300" width="120" height="80" as="geometry" />
        </mxCell>
        <mxCell id="GTbLbp3BnAc4MaiepVZ9-13" value="" style="endArrow=none;dashed=1;html=1;rounded=0;" parent="1" target="GTbLbp3BnAc4MaiepVZ9-14" edge="1">
          <mxGeometry width="50" height="50" relative="1" as="geometry">
            <mxPoint x="410" y="450" as="sourcePoint" />
            <mxPoint x="410" y="450" as="targetPoint" />
          </mxGeometry>
        </mxCell>
        <mxCell id="GTbLbp3BnAc4MaiepVZ9-14" value="&lt;div&gt;#include &amp;lt;iostream&amp;gt;&lt;/div&gt;&lt;div&gt;using namespace std;&lt;/div&gt;&lt;div&gt;int main()&lt;/div&gt;&lt;div&gt;{&lt;/div&gt;&lt;div&gt;&lt;span style=&quot;white-space-collapse: collapse;&quot;&gt;&lt;span style=&quot;white-space-collapse: preserve;&quot;&gt;&#x9;&lt;/span&gt;setlocale(LC_ALL, &quot;Russian&quot;);&lt;/span&gt;&lt;/div&gt;&lt;div&gt;&lt;span style=&quot;white-space-collapse: collapse;&quot;&gt;&lt;span style=&quot;white-space-collapse: preserve;&quot;&gt;&#x9;&lt;/span&gt;int n, d, max = 0;&lt;/span&gt;&lt;/div&gt;" style="strokeWidth=2;html=1;shape=mxgraph.flowchart.annotation_1;align=left;pointerEvents=1;" parent="1" vertex="1">
          <mxGeometry x="520" y="390" width="50" height="120" as="geometry" />
        </mxCell>
        <mxCell id="GTbLbp3BnAc4MaiepVZ9-16" value="" style="endArrow=none;dashed=1;html=1;rounded=0;" parent="1" target="GTbLbp3BnAc4MaiepVZ9-17" edge="1">
          <mxGeometry width="50" height="50" relative="1" as="geometry">
            <mxPoint x="414" y="1270" as="sourcePoint" />
            <mxPoint x="414" y="1270" as="targetPoint" />
          </mxGeometry>
        </mxCell>
        <mxCell id="GTbLbp3BnAc4MaiepVZ9-17" value="&lt;div&gt;&lt;span style=&quot;white-space-collapse: collapse;&quot;&gt;&lt;span style=&quot;white-space-collapse: preserve;&quot;&gt;&#x9;&lt;/span&gt;return 0;&lt;/span&gt;&lt;/div&gt;&lt;div&gt;}&lt;/div&gt;" style="strokeWidth=2;html=1;shape=mxgraph.flowchart.annotation_1;align=left;pointerEvents=1;" parent="1" vertex="1">
          <mxGeometry x="524" y="1220" width="50" height="100" as="geometry" />
        </mxCell>
        <mxCell id="50vtjkfvfOaoIIkYdTKp-3" style="edgeStyle=orthogonalEdgeStyle;rounded=0;orthogonalLoop=1;jettySize=auto;html=1;exitX=0.5;exitY=1;exitDx=0;exitDy=0;entryX=0.5;entryY=0;entryDx=0;entryDy=0;" edge="1" parent="1" source="50vtjkfvfOaoIIkYdTKp-1" target="50vtjkfvfOaoIIkYdTKp-2">
          <mxGeometry relative="1" as="geometry" />
        </mxCell>
        <mxCell id="50vtjkfvfOaoIIkYdTKp-1" value="cin &amp;gt;&amp;gt; n;" style="shape=parallelogram;perimeter=parallelogramPerimeter;whiteSpace=wrap;html=1;fixedSize=1;" vertex="1" parent="1">
          <mxGeometry x="350" y="550" width="120" height="60" as="geometry" />
        </mxCell>
        <mxCell id="50vtjkfvfOaoIIkYdTKp-7" style="edgeStyle=orthogonalEdgeStyle;rounded=0;orthogonalLoop=1;jettySize=auto;html=1;exitX=0.5;exitY=1;exitDx=0;exitDy=0;entryX=0.5;entryY=0;entryDx=0;entryDy=0;" edge="1" parent="1" source="50vtjkfvfOaoIIkYdTKp-2" target="50vtjkfvfOaoIIkYdTKp-4">
          <mxGeometry relative="1" as="geometry" />
        </mxCell>
        <mxCell id="50vtjkfvfOaoIIkYdTKp-16" style="edgeStyle=orthogonalEdgeStyle;rounded=0;orthogonalLoop=1;jettySize=auto;html=1;exitX=1;exitY=0.5;exitDx=0;exitDy=0;entryX=0.5;entryY=0;entryDx=0;entryDy=0;" edge="1" parent="1" source="50vtjkfvfOaoIIkYdTKp-2" target="50vtjkfvfOaoIIkYdTKp-15">
          <mxGeometry relative="1" as="geometry">
            <Array as="points">
              <mxPoint x="580" y="670" />
              <mxPoint x="580" y="1130" />
              <mxPoint x="414" y="1130" />
            </Array>
          </mxGeometry>
        </mxCell>
        <mxCell id="50vtjkfvfOaoIIkYdTKp-2" value="for (int i = 0; i &amp;lt; n; i++)" style="shape=hexagon;perimeter=hexagonPerimeter2;whiteSpace=wrap;html=1;fixedSize=1;" vertex="1" parent="1">
          <mxGeometry x="350" y="630" width="120" height="80" as="geometry" />
        </mxCell>
        <mxCell id="50vtjkfvfOaoIIkYdTKp-8" style="edgeStyle=orthogonalEdgeStyle;rounded=0;orthogonalLoop=1;jettySize=auto;html=1;exitX=0.5;exitY=1;exitDx=0;exitDy=0;entryX=0.5;entryY=0;entryDx=0;entryDy=0;" edge="1" parent="1" source="50vtjkfvfOaoIIkYdTKp-4" target="50vtjkfvfOaoIIkYdTKp-5">
          <mxGeometry relative="1" as="geometry" />
        </mxCell>
        <mxCell id="50vtjkfvfOaoIIkYdTKp-4" value="cout &amp;lt;&amp;lt; &quot;Введите число - &quot;;" style="shape=parallelogram;perimeter=parallelogramPerimeter;whiteSpace=wrap;html=1;fixedSize=1;" vertex="1" parent="1">
          <mxGeometry x="350" y="730" width="120" height="60" as="geometry" />
        </mxCell>
        <mxCell id="50vtjkfvfOaoIIkYdTKp-9" style="edgeStyle=orthogonalEdgeStyle;rounded=0;orthogonalLoop=1;jettySize=auto;html=1;exitX=0.5;exitY=1;exitDx=0;exitDy=0;entryX=0.5;entryY=0;entryDx=0;entryDy=0;" edge="1" parent="1" source="50vtjkfvfOaoIIkYdTKp-5" target="50vtjkfvfOaoIIkYdTKp-6">
          <mxGeometry relative="1" as="geometry" />
        </mxCell>
        <mxCell id="50vtjkfvfOaoIIkYdTKp-5" value="cin &amp;gt;&amp;gt; d;" style="shape=parallelogram;perimeter=parallelogramPerimeter;whiteSpace=wrap;html=1;fixedSize=1;" vertex="1" parent="1">
          <mxGeometry x="350" y="810" width="120" height="60" as="geometry" />
        </mxCell>
        <mxCell id="50vtjkfvfOaoIIkYdTKp-11" style="edgeStyle=orthogonalEdgeStyle;rounded=0;orthogonalLoop=1;jettySize=auto;html=1;exitX=0;exitY=0.5;exitDx=0;exitDy=0;" edge="1" parent="1" source="50vtjkfvfOaoIIkYdTKp-6" target="50vtjkfvfOaoIIkYdTKp-10">
          <mxGeometry relative="1" as="geometry" />
        </mxCell>
        <mxCell id="50vtjkfvfOaoIIkYdTKp-18" style="edgeStyle=orthogonalEdgeStyle;rounded=0;orthogonalLoop=1;jettySize=auto;html=1;exitX=1;exitY=0.5;exitDx=0;exitDy=0;" edge="1" parent="1" source="50vtjkfvfOaoIIkYdTKp-6">
          <mxGeometry relative="1" as="geometry">
            <mxPoint x="300" y="1080" as="targetPoint" />
            <Array as="points">
              <mxPoint x="530" y="930" />
              <mxPoint x="530" y="1080" />
            </Array>
          </mxGeometry>
        </mxCell>
        <mxCell id="50vtjkfvfOaoIIkYdTKp-6" value="if (d &amp;gt; max)" style="rhombus;whiteSpace=wrap;html=1;" vertex="1" parent="1">
          <mxGeometry x="370" y="890" width="80" height="80" as="geometry" />
        </mxCell>
        <mxCell id="50vtjkfvfOaoIIkYdTKp-13" style="edgeStyle=orthogonalEdgeStyle;rounded=0;orthogonalLoop=1;jettySize=auto;html=1;exitX=0.5;exitY=1;exitDx=0;exitDy=0;entryX=0;entryY=0.5;entryDx=0;entryDy=0;" edge="1" parent="1" source="50vtjkfvfOaoIIkYdTKp-10" target="50vtjkfvfOaoIIkYdTKp-2">
          <mxGeometry relative="1" as="geometry">
            <Array as="points">
              <mxPoint x="300" y="1080" />
              <mxPoint x="200" y="1080" />
              <mxPoint x="200" y="670" />
            </Array>
          </mxGeometry>
        </mxCell>
        <mxCell id="50vtjkfvfOaoIIkYdTKp-10" value="max = d;" style="rounded=0;whiteSpace=wrap;html=1;" vertex="1" parent="1">
          <mxGeometry x="240" y="1000" width="120" height="60" as="geometry" />
        </mxCell>
        <mxCell id="50vtjkfvfOaoIIkYdTKp-12" value="1" style="text;html=1;align=center;verticalAlign=middle;resizable=0;points=[];autosize=1;strokeColor=none;fillColor=none;" vertex="1" parent="1">
          <mxGeometry x="285" y="908" width="30" height="30" as="geometry" />
        </mxCell>
        <mxCell id="50vtjkfvfOaoIIkYdTKp-17" style="edgeStyle=orthogonalEdgeStyle;rounded=0;orthogonalLoop=1;jettySize=auto;html=1;exitX=0.5;exitY=1;exitDx=0;exitDy=0;entryX=0.5;entryY=0;entryDx=0;entryDy=0;" edge="1" parent="1" source="50vtjkfvfOaoIIkYdTKp-15" target="GTbLbp3BnAc4MaiepVZ9-6">
          <mxGeometry relative="1" as="geometry" />
        </mxCell>
        <mxCell id="50vtjkfvfOaoIIkYdTKp-15" value="cout &amp;lt;&amp;lt; max &amp;lt;&amp;lt; endl;" style="shape=parallelogram;perimeter=parallelogramPerimeter;whiteSpace=wrap;html=1;fixedSize=1;" vertex="1" parent="1">
          <mxGeometry x="354" y="1170" width="120" height="60" as="geometry" />
        </mxCell>
        <mxCell id="50vtjkfvfOaoIIkYdTKp-19" value="0" style="text;html=1;align=center;verticalAlign=middle;resizable=0;points=[];autosize=1;strokeColor=none;fillColor=none;" vertex="1" parent="1">
          <mxGeometry x="510" y="908" width="30" height="30" as="geometry" />
        </mxCell>
      </root>
    </mxGraphModel>
  </diagram>
</mxfile>
